<svg width="48" height="48" viewBox="0 0 48 48" fill="none" xmlns="http://www.w3.org/2000/svg">
<g clip-path="url(#clip0_305_2859)">
<path d="M22 24C22 25.1046 22.8954 26 24 26C25.1046 26 26 25.1046 26 24C26 22.8954 25.1046 22 24 22C22.8954 22 22 22.8954 22 24Z" fill="#121212"/>
<path fill-rule="evenodd" clip-rule="evenodd" d="M24 0.5C24.8284 0.5 25.5 1.17157 25.5 2V8.50076C28.2326 8.50753 30.0275 8.56697 31.5537 9.06285C35.0547 10.2004 37.7996 12.9453 38.9372 16.4463C39.433 17.9725 39.4925 19.7674 39.4992 22.5H46C46.8284 22.5 47.5 23.1716 47.5 24C47.5 24.8284 46.8284 25.5 46 25.5H39.4992C39.4925 28.2326 39.433 30.0275 38.9372 31.5537C37.7996 35.0547 35.0547 37.7996 31.5537 38.9372C30.0275 39.433 28.2326 39.4925 25.5 39.4992V46C25.5 46.8284 24.8284 47.5 24 47.5C23.1716 47.5 22.5 46.8284 22.5 46V39.4992C19.7674 39.4925 17.9725 39.433 16.4463 38.9372C12.9453 37.7996 10.2004 35.0547 9.06285 31.5537C8.56697 30.0275 8.50753 28.2326 8.50076 25.5H2C1.17157 25.5 0.5 24.8284 0.5 24C0.5 23.1716 1.17157 22.5 2 22.5H8.50076C8.50753 19.7674 8.56697 17.9725 9.06285 16.4463C10.2004 12.9453 12.9453 10.2004 16.4463 9.06285C17.9725 8.56697 19.7674 8.50753 22.5 8.50076V2C22.5 1.17157 23.1716 0.5 24 0.5ZM19 24C19 26.7614 21.2386 29 24 29C26.7614 29 29 26.7614 29 24C29 21.2386 26.7614 19 24 19C21.2386 19 19 21.2386 19 24Z" fill="#121212"/>
</g>
<defs>
<clipPath id="clip0_305_2859">
<rect width="48" height="48" fill="white"/>
</clipPath>
</defs>
</svg>
