<svg width="48" height="48" viewBox="0 0 48 48" fill="none" xmlns="http://www.w3.org/2000/svg">
<path d="M8.12215 40.4328L9.00382 39.2193L9.00382 39.2193L8.12215 40.4328ZM5.90983 38.2205L4.6963 39.1022L4.6963 39.1022L5.90983 38.2205ZM35.8778 40.4328L34.9962 39.2193L34.9962 39.2193L35.8778 40.4328ZM38.0902 38.2205L36.8766 37.3388L36.8766 37.3388L38.0902 38.2205ZM5.90983 10.4648L4.6963 9.58309L4.6963 9.58309L5.90983 10.4648ZM8.12215 8.25245L9.00383 9.46598L9.00383 9.46598L8.12215 8.25245ZM18.018 7.85693C18.8463 7.847 19.5098 7.16742 19.4999 6.33905C19.49 5.51069 18.8104 4.84721 17.982 4.85714L18.018 7.85693ZM41.4855 28.3606C41.4954 27.5322 40.8319 26.8527 40.0036 26.8427C39.1752 26.8328 38.4956 27.4963 38.4857 28.3246L41.4855 28.3606ZM23.5951 32.3515L23.4295 30.8607L23.5951 32.3515ZM15.3555 31.7566L14.2949 32.8172L14.2949 32.8172L15.3555 31.7566ZM14.7606 23.517L16.2514 23.6827L14.7606 23.517ZM17.0548 18.7436L15.9941 17.6829L15.9941 17.6829L17.0548 18.7436ZM15.2859 20.8314L13.9339 20.1817L13.9339 20.1817L15.2859 20.8314ZM28.3685 30.0573L29.4292 31.118L29.4292 31.118L28.3685 30.0573ZM26.2807 31.8263L26.9305 33.1782L26.9305 33.1782L26.2807 31.8263ZM22 40.8426C18.2169 40.8426 15.5 40.8406 13.3961 40.6126C11.3203 40.3877 10.0198 39.9574 9.00382 39.2193L7.24047 41.6463C8.85312 42.818 10.7419 43.3426 13.073 43.5952C15.376 43.8447 18.2837 43.8426 22 43.8426V40.8426ZM2.5 24.3426C2.5 28.0589 2.49794 30.9667 2.74746 33.2697C3.00001 35.6007 3.52465 37.4895 4.6963 39.1022L7.12336 37.3388C6.38518 36.3228 5.9549 35.0224 5.73 32.9465C5.50206 30.8426 5.5 28.1258 5.5 24.3426H2.5ZM9.00382 39.2193C8.28222 38.695 7.64763 38.0604 7.12336 37.3388L4.6963 39.1022C5.40562 40.0784 6.26418 40.937 7.24047 41.6463L9.00382 39.2193ZM22 43.8426C25.7163 43.8426 28.624 43.8447 30.927 43.5952C33.2581 43.3426 35.1469 42.818 36.7595 41.6463L34.9962 39.2193C33.9802 39.9574 32.6797 40.3877 30.6039 40.6126C28.5 40.8406 25.7831 40.8426 22 40.8426V43.8426ZM36.8766 37.3388C36.3524 38.0604 35.7178 38.695 34.9962 39.2193L36.7595 41.6463C37.7358 40.937 38.5944 40.0784 39.3037 39.1022L36.8766 37.3388ZM5.5 24.3426C5.5 20.5595 5.50206 17.8426 5.73 15.7387C5.9549 13.6629 6.38518 12.3625 7.12336 11.3464L4.6963 9.58309C3.52465 11.1957 3.00001 13.0845 2.74746 15.4156C2.49794 17.7186 2.5 20.6263 2.5 24.3426H5.5ZM7.24047 7.03893C6.26418 7.74824 5.40562 8.6068 4.6963 9.58309L7.12336 11.3464C7.64763 10.6248 8.28222 9.99025 9.00383 9.46598L7.24047 7.03893ZM17.982 4.85714C13.129 4.91532 9.79788 5.18086 7.24047 7.03893L9.00383 9.46598C10.6725 8.25359 13.0164 7.91688 18.018 7.85693L17.982 4.85714ZM38.4857 28.3246C38.4257 33.3262 38.089 35.6701 36.8766 37.3388L39.3037 39.1022C41.1618 36.5447 41.4273 33.2136 41.4855 28.3606L38.4857 28.3246ZM38.0515 18.253L27.3079 28.9967L29.4292 31.118L40.1728 20.3744L38.0515 18.253ZM18.1155 19.8043L28.8591 9.06066L26.7378 6.93934L15.9941 17.6829L18.1155 19.8043ZM23.4295 30.8607C21.0895 31.1207 19.4969 31.2939 18.3135 31.2557C17.1703 31.2188 16.7088 30.9885 16.4162 30.6959L14.2949 32.8172C15.3617 33.884 16.7266 34.206 18.2167 34.2542C19.6665 34.301 21.514 34.092 23.7608 33.8423L23.4295 30.8607ZM13.2698 23.3514C13.0201 25.5982 12.8111 27.4456 12.858 28.8955C12.9061 30.3856 13.2281 31.7505 14.2949 32.8172L16.4162 30.6959C16.1236 30.4033 15.8933 29.9418 15.8564 28.7986C15.8182 27.6153 15.9914 26.0226 16.2514 23.6827L13.2698 23.3514ZM15.9941 17.6829C15.0839 18.5932 14.3652 19.2843 13.9339 20.1817L16.6378 21.4812C16.7967 21.1507 17.0606 20.8591 18.1155 19.8043L15.9941 17.6829ZM16.2514 23.6827C16.4162 22.1999 16.4789 21.8118 16.6378 21.4812L13.9339 20.1817C13.5026 21.0791 13.4119 22.0719 13.2698 23.3514L16.2514 23.6827ZM27.3079 28.9967C26.253 30.0515 25.9615 30.3154 25.6309 30.4743L26.9305 33.1782C27.8279 32.7469 28.5189 32.0282 29.4292 31.118L27.3079 28.9967ZM23.7608 33.8423C25.0402 33.7002 26.0331 33.6095 26.9305 33.1782L25.6309 30.4743C25.3003 30.6332 24.9122 30.696 23.4295 30.8607L23.7608 33.8423ZM38.0515 9.06066C39.4148 10.424 40.3283 11.342 40.9196 12.117C41.4844 12.8573 41.6121 13.2883 41.6121 13.6569H44.6121C44.6121 12.3686 44.0731 11.3044 43.3047 10.2972C42.5626 9.32465 41.4761 8.24269 40.1728 6.93934L38.0515 9.06066ZM40.1728 20.3744C41.4761 19.071 42.5626 17.9891 43.3047 17.0165C44.0731 16.0093 44.6121 14.9451 44.6121 13.6569H41.6121C41.6121 14.0254 41.4845 14.4564 40.9196 15.1967C40.3283 15.9717 39.4148 16.8897 38.0515 18.253L40.1728 20.3744ZM40.1728 6.93934C38.8694 5.63599 37.7875 4.54953 36.8149 3.80747C35.8077 3.039 34.7435 2.5 33.4553 2.5V5.5C33.8239 5.5 34.2548 5.62767 34.9951 6.19253C35.7701 6.78381 36.6881 7.69734 38.0515 9.06066L40.1728 6.93934ZM28.8591 9.06066C30.2224 7.69734 31.1404 6.78381 31.9154 6.19253C32.6557 5.62767 33.0867 5.5 33.4553 5.5V2.5C32.167 2.5 31.1028 3.039 30.0956 3.80747C29.1231 4.54953 28.0411 5.63599 26.7378 6.93934L28.8591 9.06066ZM40.1728 18.253L28.8591 6.93934L26.7378 9.06066L38.0515 20.3744L40.1728 18.253Z" fill="#121212"/>
</svg>
