<svg width="843" height="830" viewBox="0 0 843 830" fill="none" xmlns="http://www.w3.org/2000/svg">
<g filter="url(#filter0_biii_105_4)">
<path d="M739.164 216.598C739.164 152.203 685.438 100 619.164 100" stroke="url(#paint0_linear_105_4)" stroke-width="32" stroke-miterlimit="1" stroke-linecap="round"/>
</g>
<g filter="url(#filter1_biii_105_4)">
<path d="M44 216.598C44 152.203 97.7258 100 164 100" stroke="url(#paint1_linear_105_4)" stroke-width="32" stroke-miterlimit="1" stroke-linecap="round"/>
</g>
<g filter="url(#filter2_biii_105_4)">
<path d="M44 661.886C44 726.281 97.7258 778.483 164 778.483" stroke="url(#paint2_linear_105_4)" stroke-width="32" stroke-miterlimit="1" stroke-linecap="round"/>
</g>
<g filter="url(#filter3_biii_105_4)">
<path d="M744 657.586C744 721.981 690.274 774.184 624 774.184" stroke="url(#paint3_linear_105_4)" stroke-width="32" stroke-miterlimit="1" stroke-linecap="round"/>
</g>
<g filter="url(#filter4_d_105_4)">
<g clip-path="url(#clip0_105_4)">
<path d="M532.126 186.293C499.635 171.509 462.259 164 421.022 164C379.486 164 342.089 171.509 309.897 186.315C304.564 188.768 302.217 195.104 304.67 200.459C307.145 205.792 313.438 208.139 318.814 205.686C348.211 192.182 382.601 185.334 421.022 185.334C459.187 185.334 493.577 192.182 523.273 205.707C524.702 206.368 526.217 206.667 527.689 206.667C531.742 206.667 535.625 204.342 537.417 200.416C539.849 195.061 537.481 188.725 532.126 186.293Z" fill="#4F46BB"/>
<path d="M577.971 273.845C534.728 229.898 480.435 206.666 420.979 206.666C361.758 206.666 307.507 229.898 264.115 273.823C259.976 278.026 260.019 284.788 264.2 288.927C268.403 293.066 275.144 293.002 279.283 288.842C318.601 249.035 367.582 228 420.979 228C474.59 228 523.635 249.035 562.76 288.821C564.851 290.933 567.603 292 570.355 292C573.043 292 575.752 290.976 577.843 288.928C582.046 284.789 582.11 278.048 577.971 273.845Z" fill="#4F46BB"/>
<path d="M420.979 249.333C405.768 249.333 390.664 251.21 376.072 254.922C370.355 256.373 366.899 262.175 368.349 267.893C369.8 273.61 375.645 277.024 381.32 275.594C394.184 272.33 407.539 270.666 420.979 270.666C509.214 270.666 580.979 342.431 580.979 430.666C580.979 436.554 585.758 441.333 591.646 441.333C597.534 441.333 602.313 436.554 602.313 430.666C602.313 330.677 520.969 249.333 420.979 249.333Z" fill="#4F46BB"/>
<path d="M344.521 277.664C341.577 272.608 335.07 270.88 329.929 273.845C316.318 281.802 303.668 291.637 292.382 303.072C259.166 336.651 240.457 381.899 239.689 430.517C239.604 436.405 244.297 441.248 250.206 441.333C250.249 441.333 250.313 441.333 250.377 441.333C256.18 441.333 260.937 436.682 261.022 430.837C261.705 387.744 278.217 347.701 307.55 318.048C317.534 307.936 328.691 299.275 340.702 292.256C345.779 289.291 347.486 282.763 344.521 277.664Z" fill="#4F46BB"/>
<path d="M525.513 339.637C499.102 309.365 461.001 292 420.979 292C383.774 292 348.894 306.592 322.739 333.067C296.67 359.392 282.334 394.998 282.334 433.846C282.398 456.801 275.23 484.321 262.387 510.753L256.392 521.42C253.512 526.561 255.325 533.047 260.467 535.948C262.131 536.887 263.923 537.335 265.694 537.335C269.427 537.335 273.054 535.372 274.995 531.895L281.288 520.674C296.029 490.338 303.752 460.301 303.667 433.293C303.667 400.632 315.806 370.381 337.886 348.066C360.03 325.666 389.513 313.335 420.979 313.335C454.835 313.335 487.091 328.034 509.427 353.676C513.288 358.113 520.051 358.561 524.488 354.7C528.926 350.816 529.374 344.075 525.513 339.637Z" fill="#4F46BB"/>
<path d="M579.486 553.632L567.454 514.272C560.691 483.403 560.115 453.941 559.753 436.32L559.646 430.667C559.646 414.859 556.979 399.328 551.731 384.502C549.768 378.955 543.731 376.054 538.12 378.017C532.573 379.98 529.672 386.06 531.635 391.628C536.072 404.151 538.312 417.292 538.312 430.945L538.44 436.748C538.824 455.137 539.421 485.921 546.845 519.649L559.048 559.841C560.435 564.449 564.68 567.393 569.267 567.393C570.291 567.393 571.336 567.244 572.382 566.945C578.014 565.216 581.193 559.285 579.486 553.632Z" fill="#4F46BB"/>
<path d="M548.361 602.912L538.441 571.147C520.841 516.192 517.556 454.411 516.98 430.667C516.98 377.739 473.908 334.667 420.98 334.667C368.052 334.667 325.001 378.4 325.001 432.523C325.044 443.744 322.974 503.03 277.918 568.011C274.547 572.854 275.763 579.51 280.585 582.859C285.406 586.208 292.084 585.014 295.433 580.192C342.921 511.733 346.398 449.803 346.334 432.181C346.334 390.176 379.827 356.021 420.979 356.021C462.152 356.021 495.646 389.514 495.646 430.944C496.414 461.92 500.361 522.165 518.11 577.611L527.966 609.248C529.395 613.813 533.598 616.736 538.163 616.736C539.208 616.736 540.275 616.587 541.342 616.267C546.974 614.496 550.11 608.523 548.361 602.912Z" fill="#4F46BB"/>
<path d="M474.313 430.667C474.313 401.27 450.377 377.334 420.98 377.334C391.583 377.334 367.647 401.27 367.647 431.073C367.775 434.593 370.143 518.39 302.388 606.561C298.804 611.233 299.679 617.932 304.351 621.516C309.044 625.121 315.722 624.204 319.306 619.553C391.69 525.345 389.087 434.102 388.959 430.668C388.959 413.025 403.316 398.668 420.959 398.668C438.602 398.668 452.959 413.025 452.98 430.903C453.279 442.85 453.343 550.626 370.057 658.828C366.473 663.5 367.326 670.199 371.998 673.783C373.961 675.276 376.243 676.002 378.505 676.002C381.705 676.002 384.862 674.573 386.953 671.842C474.867 557.664 474.611 443.104 474.313 430.667Z" fill="#4F46BB"/>
<path d="M431.603 430.197C431.326 424.33 426.718 419.658 420.488 420.021C414.621 420.277 410.056 425.248 410.291 431.136C410.291 431.285 410.888 446.901 406.92 471.584C406.003 477.408 409.971 482.891 415.773 483.829C416.349 483.914 416.925 483.957 417.48 483.957C422.621 483.957 427.165 480.224 427.997 474.997C432.35 447.925 431.646 430.901 431.603 430.197Z" fill="#4F46BB"/>
<path d="M410.675 506.08C405 504.395 399.091 507.637 397.406 513.269C384.073 558.304 361.886 600.416 331.507 638.474C327.838 643.082 328.584 649.781 333.192 653.471C335.155 655.05 337.501 655.796 339.848 655.796C342.984 655.796 346.077 654.431 348.189 651.785C380.296 611.593 403.741 567.028 417.885 519.348C419.55 513.696 416.329 507.744 410.675 506.08Z" fill="#4F46BB"/>
<path d="M514.057 633.888L501.193 593.035C496.073 577.718 491.294 561.526 491.273 561.462C489.993 557.131 486.153 554.081 481.652 553.825C477.044 553.505 472.969 556.15 471.22 560.31C470.985 560.865 447.22 616.737 419.977 659.617C416.82 664.588 418.292 671.18 423.262 674.337C425.033 675.468 427.017 676.001 428.979 676.001C432.52 676.001 435.955 674.252 437.982 671.052C454.473 645.089 469.449 615.244 479.219 594.487C479.774 596.194 480.35 597.922 480.926 599.628L493.705 640.289C495.476 645.9 501.406 649.057 507.081 647.265C512.691 645.493 515.827 639.52 514.057 633.888Z" fill="#4F46BB"/>
</g>
</g>
<g filter="url(#filter5_biii_105_4)">
<rect x="99" y="420" width="645" height="30" rx="15" fill="url(#paint4_linear_105_4)" fill-opacity="0.7"/>
<rect x="99" y="420" width="645" height="30" rx="15" stroke="url(#paint5_linear_105_4)" stroke-width="0.5" stroke-linecap="round" stroke-linejoin="round"/>
</g>
<defs>
<filter id="filter0_biii_105_4" x="593.164" y="74" width="172" height="168.598" filterUnits="userSpaceOnUse" color-interpolation-filters="sRGB">
<feFlood flood-opacity="0" result="BackgroundImageFix"/>
<feGaussianBlur in="BackgroundImage" stdDeviation="5"/>
<feComposite in2="SourceAlpha" operator="in" result="effect1_backgroundBlur_105_4"/>
<feBlend mode="normal" in="SourceGraphic" in2="effect1_backgroundBlur_105_4" result="shape"/>
<feColorMatrix in="SourceAlpha" type="matrix" values="0 0 0 0 0 0 0 0 0 0 0 0 0 0 0 0 0 0 127 0" result="hardAlpha"/>
<feOffset dy="-4"/>
<feGaussianBlur stdDeviation="0.5"/>
<feComposite in2="hardAlpha" operator="arithmetic" k2="-1" k3="1"/>
<feColorMatrix type="matrix" values="0 0 0 0 0.920833 0 0 0 0 0.920833 0 0 0 0 0.920833 0 0 0 0.1 0"/>
<feBlend mode="normal" in2="shape" result="effect2_innerShadow_105_4"/>
<feColorMatrix in="SourceAlpha" type="matrix" values="0 0 0 0 0 0 0 0 0 0 0 0 0 0 0 0 0 0 127 0" result="hardAlpha"/>
<feOffset dx="-1"/>
<feGaussianBlur stdDeviation="0.5"/>
<feComposite in2="hardAlpha" operator="arithmetic" k2="-1" k3="1"/>
<feColorMatrix type="matrix" values="0 0 0 0 0.920833 0 0 0 0 0.920833 0 0 0 0 0.920833 0 0 0 0.1 0"/>
<feBlend mode="normal" in2="effect2_innerShadow_105_4" result="effect3_innerShadow_105_4"/>
<feColorMatrix in="SourceAlpha" type="matrix" values="0 0 0 0 0 0 0 0 0 0 0 0 0 0 0 0 0 0 127 0" result="hardAlpha"/>
<feOffset dx="1"/>
<feGaussianBlur stdDeviation="0.5"/>
<feComposite in2="hardAlpha" operator="arithmetic" k2="-1" k3="1"/>
<feColorMatrix type="matrix" values="0 0 0 0 0.920833 0 0 0 0 0.920833 0 0 0 0 0.920833 0 0 0 0.1 0"/>
<feBlend mode="normal" in2="effect3_innerShadow_105_4" result="effect4_innerShadow_105_4"/>
</filter>
<filter id="filter1_biii_105_4" x="18" y="74" width="172" height="168.598" filterUnits="userSpaceOnUse" color-interpolation-filters="sRGB">
<feFlood flood-opacity="0" result="BackgroundImageFix"/>
<feGaussianBlur in="BackgroundImage" stdDeviation="5"/>
<feComposite in2="SourceAlpha" operator="in" result="effect1_backgroundBlur_105_4"/>
<feBlend mode="normal" in="SourceGraphic" in2="effect1_backgroundBlur_105_4" result="shape"/>
<feColorMatrix in="SourceAlpha" type="matrix" values="0 0 0 0 0 0 0 0 0 0 0 0 0 0 0 0 0 0 127 0" result="hardAlpha"/>
<feOffset dy="-4"/>
<feGaussianBlur stdDeviation="0.5"/>
<feComposite in2="hardAlpha" operator="arithmetic" k2="-1" k3="1"/>
<feColorMatrix type="matrix" values="0 0 0 0 0.920833 0 0 0 0 0.920833 0 0 0 0 0.920833 0 0 0 0.1 0"/>
<feBlend mode="normal" in2="shape" result="effect2_innerShadow_105_4"/>
<feColorMatrix in="SourceAlpha" type="matrix" values="0 0 0 0 0 0 0 0 0 0 0 0 0 0 0 0 0 0 127 0" result="hardAlpha"/>
<feOffset dx="-1"/>
<feGaussianBlur stdDeviation="0.5"/>
<feComposite in2="hardAlpha" operator="arithmetic" k2="-1" k3="1"/>
<feColorMatrix type="matrix" values="0 0 0 0 0.920833 0 0 0 0 0.920833 0 0 0 0 0.920833 0 0 0 0.1 0"/>
<feBlend mode="normal" in2="effect2_innerShadow_105_4" result="effect3_innerShadow_105_4"/>
<feColorMatrix in="SourceAlpha" type="matrix" values="0 0 0 0 0 0 0 0 0 0 0 0 0 0 0 0 0 0 127 0" result="hardAlpha"/>
<feOffset dx="1"/>
<feGaussianBlur stdDeviation="0.5"/>
<feComposite in2="hardAlpha" operator="arithmetic" k2="-1" k3="1"/>
<feColorMatrix type="matrix" values="0 0 0 0 0.920833 0 0 0 0 0.920833 0 0 0 0 0.920833 0 0 0 0.1 0"/>
<feBlend mode="normal" in2="effect3_innerShadow_105_4" result="effect4_innerShadow_105_4"/>
</filter>
<filter id="filter2_biii_105_4" x="18" y="635.886" width="172" height="168.598" filterUnits="userSpaceOnUse" color-interpolation-filters="sRGB">
<feFlood flood-opacity="0" result="BackgroundImageFix"/>
<feGaussianBlur in="BackgroundImage" stdDeviation="5"/>
<feComposite in2="SourceAlpha" operator="in" result="effect1_backgroundBlur_105_4"/>
<feBlend mode="normal" in="SourceGraphic" in2="effect1_backgroundBlur_105_4" result="shape"/>
<feColorMatrix in="SourceAlpha" type="matrix" values="0 0 0 0 0 0 0 0 0 0 0 0 0 0 0 0 0 0 127 0" result="hardAlpha"/>
<feOffset dy="-4"/>
<feGaussianBlur stdDeviation="0.5"/>
<feComposite in2="hardAlpha" operator="arithmetic" k2="-1" k3="1"/>
<feColorMatrix type="matrix" values="0 0 0 0 0.920833 0 0 0 0 0.920833 0 0 0 0 0.920833 0 0 0 0.1 0"/>
<feBlend mode="normal" in2="shape" result="effect2_innerShadow_105_4"/>
<feColorMatrix in="SourceAlpha" type="matrix" values="0 0 0 0 0 0 0 0 0 0 0 0 0 0 0 0 0 0 127 0" result="hardAlpha"/>
<feOffset dx="-1"/>
<feGaussianBlur stdDeviation="0.5"/>
<feComposite in2="hardAlpha" operator="arithmetic" k2="-1" k3="1"/>
<feColorMatrix type="matrix" values="0 0 0 0 0.920833 0 0 0 0 0.920833 0 0 0 0 0.920833 0 0 0 0.1 0"/>
<feBlend mode="normal" in2="effect2_innerShadow_105_4" result="effect3_innerShadow_105_4"/>
<feColorMatrix in="SourceAlpha" type="matrix" values="0 0 0 0 0 0 0 0 0 0 0 0 0 0 0 0 0 0 127 0" result="hardAlpha"/>
<feOffset dx="1"/>
<feGaussianBlur stdDeviation="0.5"/>
<feComposite in2="hardAlpha" operator="arithmetic" k2="-1" k3="1"/>
<feColorMatrix type="matrix" values="0 0 0 0 0.920833 0 0 0 0 0.920833 0 0 0 0 0.920833 0 0 0 0.1 0"/>
<feBlend mode="normal" in2="effect3_innerShadow_105_4" result="effect4_innerShadow_105_4"/>
</filter>
<filter id="filter3_biii_105_4" x="598" y="631.586" width="172" height="168.598" filterUnits="userSpaceOnUse" color-interpolation-filters="sRGB">
<feFlood flood-opacity="0" result="BackgroundImageFix"/>
<feGaussianBlur in="BackgroundImage" stdDeviation="5"/>
<feComposite in2="SourceAlpha" operator="in" result="effect1_backgroundBlur_105_4"/>
<feBlend mode="normal" in="SourceGraphic" in2="effect1_backgroundBlur_105_4" result="shape"/>
<feColorMatrix in="SourceAlpha" type="matrix" values="0 0 0 0 0 0 0 0 0 0 0 0 0 0 0 0 0 0 127 0" result="hardAlpha"/>
<feOffset dy="-4"/>
<feGaussianBlur stdDeviation="0.5"/>
<feComposite in2="hardAlpha" operator="arithmetic" k2="-1" k3="1"/>
<feColorMatrix type="matrix" values="0 0 0 0 0.920833 0 0 0 0 0.920833 0 0 0 0 0.920833 0 0 0 0.1 0"/>
<feBlend mode="normal" in2="shape" result="effect2_innerShadow_105_4"/>
<feColorMatrix in="SourceAlpha" type="matrix" values="0 0 0 0 0 0 0 0 0 0 0 0 0 0 0 0 0 0 127 0" result="hardAlpha"/>
<feOffset dx="-1"/>
<feGaussianBlur stdDeviation="0.5"/>
<feComposite in2="hardAlpha" operator="arithmetic" k2="-1" k3="1"/>
<feColorMatrix type="matrix" values="0 0 0 0 0.920833 0 0 0 0 0.920833 0 0 0 0 0.920833 0 0 0 0.1 0"/>
<feBlend mode="normal" in2="effect2_innerShadow_105_4" result="effect3_innerShadow_105_4"/>
<feColorMatrix in="SourceAlpha" type="matrix" values="0 0 0 0 0 0 0 0 0 0 0 0 0 0 0 0 0 0 127 0" result="hardAlpha"/>
<feOffset dx="1"/>
<feGaussianBlur stdDeviation="0.5"/>
<feComposite in2="hardAlpha" operator="arithmetic" k2="-1" k3="1"/>
<feColorMatrix type="matrix" values="0 0 0 0 0.920833 0 0 0 0 0.920833 0 0 0 0 0.920833 0 0 0 0.1 0"/>
<feBlend mode="normal" in2="effect3_innerShadow_105_4" result="effect4_innerShadow_105_4"/>
</filter>
<filter id="filter4_d_105_4" x="157" y="158" width="536" height="536" filterUnits="userSpaceOnUse" color-interpolation-filters="sRGB">
<feFlood flood-opacity="0" result="BackgroundImageFix"/>
<feColorMatrix in="SourceAlpha" type="matrix" values="0 0 0 0 0 0 0 0 0 0 0 0 0 0 0 0 0 0 127 0" result="hardAlpha"/>
<feOffset dx="4" dy="6"/>
<feGaussianBlur stdDeviation="6"/>
<feColorMatrix type="matrix" values="0 0 0 0 0 0 0 0 0 0 0 0 0 0 0 0 0 0 0.08 0"/>
<feBlend mode="normal" in2="BackgroundImageFix" result="effect1_dropShadow_105_4"/>
<feBlend mode="normal" in="SourceGraphic" in2="effect1_dropShadow_105_4" result="shape"/>
</filter>
<filter id="filter5_biii_105_4" x="83.75" y="404.75" width="675.5" height="60.5" filterUnits="userSpaceOnUse" color-interpolation-filters="sRGB">
<feFlood flood-opacity="0" result="BackgroundImageFix"/>
<feGaussianBlur in="BackgroundImage" stdDeviation="7.5"/>
<feComposite in2="SourceAlpha" operator="in" result="effect1_backgroundBlur_105_4"/>
<feBlend mode="normal" in="SourceGraphic" in2="effect1_backgroundBlur_105_4" result="shape"/>
<feColorMatrix in="SourceAlpha" type="matrix" values="0 0 0 0 0 0 0 0 0 0 0 0 0 0 0 0 0 0 127 0" result="hardAlpha"/>
<feOffset dy="-4"/>
<feGaussianBlur stdDeviation="0.5"/>
<feComposite in2="hardAlpha" operator="arithmetic" k2="-1" k3="1"/>
<feColorMatrix type="matrix" values="0 0 0 0 0.920833 0 0 0 0 0.920833 0 0 0 0 0.920833 0 0 0 0.1 0"/>
<feBlend mode="normal" in2="shape" result="effect2_innerShadow_105_4"/>
<feColorMatrix in="SourceAlpha" type="matrix" values="0 0 0 0 0 0 0 0 0 0 0 0 0 0 0 0 0 0 127 0" result="hardAlpha"/>
<feOffset dx="-1"/>
<feGaussianBlur stdDeviation="0.5"/>
<feComposite in2="hardAlpha" operator="arithmetic" k2="-1" k3="1"/>
<feColorMatrix type="matrix" values="0 0 0 0 0.920833 0 0 0 0 0.920833 0 0 0 0 0.920833 0 0 0 0.1 0"/>
<feBlend mode="normal" in2="effect2_innerShadow_105_4" result="effect3_innerShadow_105_4"/>
<feColorMatrix in="SourceAlpha" type="matrix" values="0 0 0 0 0 0 0 0 0 0 0 0 0 0 0 0 0 0 127 0" result="hardAlpha"/>
<feOffset dx="1"/>
<feGaussianBlur stdDeviation="0.5"/>
<feComposite in2="hardAlpha" operator="arithmetic" k2="-1" k3="1"/>
<feColorMatrix type="matrix" values="0 0 0 0 0.920833 0 0 0 0 0.920833 0 0 0 0 0.920833 0 0 0 0.1 0"/>
<feBlend mode="normal" in2="effect3_innerShadow_105_4" result="effect4_innerShadow_105_4"/>
</filter>
<linearGradient id="paint0_linear_105_4" x1="593.462" y1="44.4199" x2="764.701" y2="268.315" gradientUnits="userSpaceOnUse">
<stop stop-color="#03FF1C"/>
<stop offset="1" stop-color="#9FE7F5" stop-opacity="0.3"/>
</linearGradient>
<linearGradient id="paint1_linear_105_4" x1="189.702" y1="44.4199" x2="18.4626" y2="268.315" gradientUnits="userSpaceOnUse">
<stop stop-color="#03FF1C"/>
<stop offset="1" stop-color="#9FE7F5" stop-opacity="0.3"/>
</linearGradient>
<linearGradient id="paint2_linear_105_4" x1="189.702" y1="834.063" x2="18.4626" y2="610.169" gradientUnits="userSpaceOnUse">
<stop stop-color="#03FF1C"/>
<stop offset="1" stop-color="#9FE7F5" stop-opacity="0.3"/>
</linearGradient>
<linearGradient id="paint3_linear_105_4" x1="598.298" y1="829.764" x2="769.537" y2="605.869" gradientUnits="userSpaceOnUse">
<stop stop-color="#03FF1C"/>
<stop offset="1" stop-color="#9FE7F5" stop-opacity="0.3"/>
</linearGradient>
<linearGradient id="paint4_linear_105_4" x1="28.9999" y1="372.5" x2="817" y2="501" gradientUnits="userSpaceOnUse">
<stop stop-color="#43F105" stop-opacity="0.4"/>
<stop offset="1" stop-color="#3DFF2C" stop-opacity="0.59"/>
</linearGradient>
<linearGradient id="paint5_linear_105_4" x1="133.46" y1="422.172" x2="135.231" y2="469.345" gradientUnits="userSpaceOnUse">
<stop stop-color="white" stop-opacity="0.25"/>
<stop offset="1" stop-color="white" stop-opacity="0"/>
</linearGradient>
<clipPath id="clip0_105_4">
<rect x="165" y="164" width="512" height="512" fill="white"/>
</clipPath>
</defs>
</svg>
