<svg width="48" height="48" viewBox="0 0 48 48" fill="none" xmlns="http://www.w3.org/2000/svg">
<path d="M29.4168 6.11035C30.6461 5.49927 32.0908 5.31747 33.5208 5.70063C36.6327 6.53446 38.4794 9.73309 37.6456 12.845L32.9006 30.5536C32.0667 33.6655 28.8681 35.5122 25.7562 34.6784C22.6443 33.8446 20.7976 30.6459 21.6314 27.5341L23.5294 20.4506C23.7438 19.6504 23.269 18.8279 22.4688 18.6135C21.6686 18.3991 20.8461 18.874 20.6317 19.6742L18.7336 26.7576C17.471 31.4699 20.2675 36.3135 24.9798 37.5762C29.692 38.8388 34.5357 36.0424 35.7983 31.3301L40.5434 13.6214C41.806 8.90915 39.0095 4.06551 34.2972 2.80285C32.1343 2.2233 29.9402 2.49998 28.0814 3.42397C26.9417 3.99054 25.9256 4.80141 25.1166 5.81007C24.5982 6.4563 24.7019 7.40037 25.3481 7.91872C25.9943 8.43706 26.9384 8.3334 27.4568 7.68717C27.9899 7.02249 28.6615 6.48584 29.4168 6.11035Z" fill="#FAFAFA"/>
<path d="M16.446 18.5526C17.2798 15.4407 20.4784 13.594 23.5903 14.4278C26.7022 15.2616 28.5489 18.4603 27.7151 21.5722L25.8171 28.6556C25.6027 29.4558 26.0776 30.2783 26.8778 30.4927C27.678 30.7071 28.5005 30.2323 28.7149 29.4321L30.6129 22.3486C31.8755 17.6363 29.0791 12.7927 24.3668 11.53C19.6545 10.2674 14.8108 13.0639 13.5482 17.7761L8.80318 35.4848C7.54053 40.1971 10.337 45.0407 15.0493 46.3034C17.2122 46.8829 19.4064 46.6062 21.2651 45.6823C22.4049 45.1157 23.4209 44.3048 24.23 43.2961C24.7483 42.6499 24.6446 41.7058 23.9984 41.1875C23.3522 40.6692 22.4081 40.7728 21.8898 41.419C21.3566 42.0837 20.6851 42.6204 19.9297 42.9959C18.7004 43.6069 17.2557 43.7887 15.8257 43.4056C12.7139 42.5718 10.8671 39.3731 11.701 36.2612L16.446 18.5526Z" fill="#FAFAFA"/>
</svg>
