<svg width="48" height="48" viewBox="0 0 48 48" fill="none" xmlns="http://www.w3.org/2000/svg">
<path d="M10.1221 40.0902L9.24047 41.3037L10.1221 40.0902ZM7.90983 37.8779L6.6963 38.7595L6.6963 38.7595L7.90983 37.8779ZM40.0902 37.8779L38.8766 36.9962L38.8766 36.9962L40.0902 37.8779ZM37.8779 40.0902L36.9962 38.8766L36.9962 38.8766L37.8779 40.0902ZM37.8779 7.90983L36.9962 9.12336L37.8779 7.90983ZM40.0902 10.1221L38.8766 11.0038L40.0902 10.1221ZM10.1221 7.90983L11.0038 9.12336L10.1221 7.90983ZM7.90983 10.1221L9.12336 11.0038L7.90983 10.1221ZM10.0069 39.665L8.50816 39.6033L8.50689 39.6341V39.665H10.0069ZM37.981 39.445L39.4802 39.3938L39.4793 39.3681L39.4775 39.3425L37.981 39.445ZM30.5 18C30.5 21.5899 27.5899 24.5 24 24.5V27.5C29.2467 27.5 33.5 23.2467 33.5 18H30.5ZM24 24.5C20.4101 24.5 17.5 21.5899 17.5 18H14.5C14.5 23.2467 18.7533 27.5 24 27.5V24.5ZM17.5 18C17.5 14.4101 20.4101 11.5 24 11.5V8.5C18.7533 8.5 14.5 12.7533 14.5 18H17.5ZM24 11.5C27.5899 11.5 30.5 14.4101 30.5 18H33.5C33.5 12.7533 29.2467 8.5 24 8.5V11.5ZM24 40.5C20.2169 40.5 17.5 40.4979 15.3961 40.27C13.3203 40.0451 12.0198 39.6148 11.0038 38.8766L9.24047 41.3037C10.8531 42.4754 12.7419 43 15.073 43.2525C17.376 43.5021 20.2837 43.5 24 43.5V40.5ZM4.5 24C4.5 27.7163 4.49794 30.624 4.74746 32.927C5.00001 35.2581 5.52465 37.1469 6.6963 38.7595L9.12336 36.9962C8.38518 35.9802 7.9549 34.6797 7.73 32.6039C7.50206 30.5 7.5 27.7831 7.5 24H4.5ZM40.5 24C40.5 27.7831 40.4979 30.5 40.27 32.6039C40.0451 34.6797 39.6148 35.9802 38.8766 36.9962L41.3037 38.7595C42.4754 37.1469 43 35.2581 43.2525 32.927C43.5021 30.624 43.5 27.7163 43.5 24H40.5ZM24 43.5C27.7163 43.5 30.624 43.5021 32.927 43.2525C35.2581 43 37.1469 42.4754 38.7595 41.3037L36.9962 38.8766C35.9802 39.6148 34.6797 40.0451 32.6039 40.27C30.5 40.4979 27.7831 40.5 24 40.5V43.5ZM24 7.5C27.7831 7.5 30.5 7.50206 32.6039 7.73C34.6797 7.9549 35.9802 8.38518 36.9962 9.12336L38.7595 6.6963C37.1469 5.52465 35.2581 5.00001 32.927 4.74746C30.624 4.49794 27.7163 4.5 24 4.5V7.5ZM43.5 24C43.5 20.2837 43.5021 17.376 43.2525 15.073C43 12.7419 42.4754 10.8531 41.3037 9.24047L38.8766 11.0038C39.6148 12.0198 40.0451 13.3203 40.27 15.3961C40.4979 17.5 40.5 20.2169 40.5 24H43.5ZM36.9962 9.12336C37.7178 9.64763 38.3524 10.2822 38.8766 11.0038L41.3037 9.24047C40.5944 8.26418 39.7358 7.40562 38.7595 6.6963L36.9962 9.12336ZM24 4.5C20.2837 4.5 17.376 4.49794 15.073 4.74746C12.7419 5.00001 10.8531 5.52465 9.24047 6.6963L11.0038 9.12336C12.0198 8.38518 13.3203 7.9549 15.3961 7.73C17.5 7.50206 20.2169 7.5 24 7.5V4.5ZM7.5 24C7.5 20.2169 7.50206 17.5 7.73 15.3961C7.9549 13.3203 8.38518 12.0198 9.12336 11.0038L6.6963 9.24047C5.52465 10.8531 5.00001 12.7419 4.74746 15.073C4.49794 17.376 4.5 20.2837 4.5 24H7.5ZM9.24047 6.6963C8.26418 7.40562 7.40562 8.26418 6.6963 9.24047L9.12336 11.0038C9.64763 10.2822 10.2822 9.64763 11.0038 9.12336L9.24047 6.6963ZM18 33.5H30V30.5H18V33.5ZM18 30.5C12.8862 30.5 8.71673 34.54 8.50816 39.6033L11.5056 39.7267C11.6482 36.2642 14.5017 33.5 18 33.5V30.5ZM11.0038 38.8766C10.971 38.8528 10.9383 38.8287 10.9059 38.8044L9.10792 41.2059C9.15184 41.2388 9.19602 41.2714 9.24047 41.3037L11.0038 38.8766ZM10.9059 38.8044C10.2247 38.2944 9.62377 37.6849 9.12336 36.9962L6.6963 38.7595C7.37334 39.6914 8.18635 40.516 9.10792 41.2059L10.9059 38.8044ZM8.50689 39.665V40.0052H11.5069V39.665H8.50689ZM30 33.5C33.4377 33.5 36.2531 36.1695 36.4846 39.5475L39.4775 39.3425C39.139 34.4017 35.0258 30.5 30 30.5V33.5ZM38.8766 36.9962C38.3777 37.683 37.7788 38.2909 37.1 38.8L38.9 41.2C39.8183 40.5113 40.6286 39.6887 41.3037 38.7595L38.8766 36.9962ZM37.1 38.8C37.0656 38.8258 37.031 38.8514 36.9962 38.8766L38.7595 41.3037C38.8066 41.2695 38.8535 41.2349 38.9 41.2L37.1 38.8ZM36.4819 39.4962L36.5009 40.0512L39.4991 39.9488L39.4802 39.3938L36.4819 39.4962Z" fill="#121212"/>
</svg>
