<svg width="24" height="24" viewBox="0 0 24 24" fill="none" xmlns="http://www.w3.org/2000/svg">
<path d="M7.49994 8.75C7.30994 8.75 7.11994 8.82 6.96994 8.97C6.67994 9.26 6.67994 9.74 6.96994 10.03L10.1699 13.23C10.3299 13.39 10.5399 13.47 10.7699 13.45C10.9899 13.43 11.1899 13.31 11.3199 13.12L12.4099 11.48L15.9599 15.03C16.2499 15.32 16.7299 15.32 17.0199 15.03C17.3099 14.74 17.3099 14.26 17.0199 13.97L12.8199 9.77C12.6599 9.61 12.4499 9.53 12.2199 9.55C11.9999 9.57 11.7999 9.69 11.6699 9.88L10.5799 11.52L8.02994 8.97C7.87994 8.82 7.68994 8.75 7.49994 8.75Z" fill="#7C7C7C"/>
<path d="M16.5 11.75C16.09 11.75 15.75 12.09 15.75 12.5L15.75 13.75L14.5 13.75C14.09 13.75 13.75 14.09 13.75 14.5C13.75 14.91 14.09 15.25 14.5 15.25L16.5 15.25C16.91 15.25 17.25 14.91 17.25 14.5L17.25 12.5C17.25 12.09 16.91 11.75 16.5 11.75Z" fill="#7C7C7C"/>
<path d="M15 1.25L9 1.25C3.57 1.25 1.25 3.57 1.25 9L1.25 15C1.25 20.43 3.57 22.75 9 22.75L15 22.75C20.43 22.75 22.75 20.43 22.75 15L22.75 9C22.75 3.57 20.43 1.25 15 1.25ZM9 21.25C4.39 21.25 2.75 19.61 2.75 15L2.75 9C2.75 4.39 4.39 2.75 9 2.75L15 2.75C19.61 2.75 21.25 4.39 21.25 9L21.25 15C21.25 19.61 19.61 21.25 15 21.25L9 21.25Z" fill="#7C7C7C"/>
</svg>
