<svg width="48" height="48" viewBox="0 0 48 48" fill="none" xmlns="http://www.w3.org/2000/svg">
<path fill-rule="evenodd" clip-rule="evenodd" d="M24 16.5C19.8579 16.5 16.5 19.8579 16.5 24C16.5 28.1421 19.8579 31.5 24 31.5C28.1421 31.5 31.5 28.1421 31.5 24C31.5 19.8579 28.1421 16.5 24 16.5ZM19.5 24C19.5 21.5147 21.5147 19.5 24 19.5C26.4853 19.5 28.5 21.5147 28.5 24C28.5 26.4853 26.4853 28.5 24 28.5C21.5147 28.5 19.5 26.4853 19.5 24Z" fill="#121212"/>
<path fill-rule="evenodd" clip-rule="evenodd" d="M24 6.5C19.7181 6.5 15.8465 8.61798 12.7035 11.1914C9.54327 13.7789 6.95924 16.9573 5.22283 19.376L5.07963 19.5752C4.0343 21.0277 3.17383 22.2233 3.17383 24C3.17383 25.7767 4.0343 26.9723 5.07963 28.4248L5.22283 28.624C6.95924 31.0427 9.54327 34.2211 12.7035 36.8086C15.8465 39.382 19.7181 41.5 24 41.5C28.2819 41.5 32.1535 39.382 35.2966 36.8086C38.4568 34.2211 41.0408 31.0427 42.7772 28.624L42.9204 28.4248C43.9657 26.9723 44.8262 25.7767 44.8262 24C44.8262 22.2233 43.9657 21.0277 42.9204 19.5752L42.7772 19.376C41.0408 16.9573 38.4568 13.7789 35.2966 11.1914C32.1535 8.61798 28.2819 6.5 24 6.5ZM7.65986 21.1256C9.3184 18.8153 11.727 15.8683 14.604 13.5126C17.4982 11.1429 20.7085 9.5 24 9.5C27.2916 9.5 30.5018 11.1429 33.396 13.5126C36.2731 15.8683 38.6816 18.8153 40.3402 21.1256C41.5881 22.8639 41.8262 23.283 41.8262 24C41.8262 24.717 41.5881 25.1361 40.3402 26.8744C38.6816 29.1847 36.2731 32.1317 33.396 34.4874C30.5018 36.8571 27.2916 38.5 24 38.5C20.7085 38.5 17.4982 36.8571 14.604 34.4874C11.727 32.1317 9.3184 29.1847 7.65986 26.8744C6.41193 25.1361 6.17383 24.717 6.17383 24C6.17383 23.283 6.41193 22.8639 7.65986 21.1256Z" fill="#121212"/>
</svg>
