<svg width="44" height="44" viewBox="0 0 44 44" fill="none" xmlns="http://www.w3.org/2000/svg">
<path d="M6.77531 40.5264L7.55906 39.2474L7.55906 39.2474L6.77531 40.5264ZM3.4739 37.225L4.75286 36.4412L4.75286 36.4412L3.4739 37.225ZM40.5267 37.225L39.2477 36.4412L39.2477 36.4412L40.5267 37.225ZM37.2253 40.5264L36.4415 39.2474L36.4415 39.2474L37.2253 40.5264ZM37.2253 9.4736L36.4415 10.7526L36.4415 10.7526L37.2253 9.4736ZM40.5267 12.775L39.2477 13.5588L39.2477 13.5588L40.5267 12.775ZM6.77531 9.4736L7.55906 10.7526L7.55906 10.7526L6.77531 9.4736ZM3.4739 12.775L4.75286 13.5588L4.75286 13.5588L3.4739 12.775ZM34.9539 3.0929L36.0364 2.05455L36.0364 2.05455L34.9539 3.0929ZM5.68874 3.78158L6.59443 4.97729L6.59443 4.97729L5.68874 3.78158ZM3.70919 5.84534L4.93983 6.70297L3.70919 5.84534ZM36.0003 8.26065L37.5003 8.26065L37.5003 8.25323L36.0003 8.26065ZM34.7276 25.2273C35.556 25.2273 36.2276 24.5557 36.2276 23.7273C36.2276 22.8989 35.556 22.2273 34.7276 22.2273V25.2273ZM29.273 22.2273C28.4446 22.2273 27.773 22.8989 27.773 23.7273C27.773 24.5557 28.4446 25.2273 29.273 25.2273V22.2273ZM19.0003 9.5H25.0003V6.5H19.0003V9.5ZM25.0003 40.5H19.0003V43.5H25.0003V40.5ZM19.0003 40.5C15.6978 40.5 13.3263 40.4984 11.4765 40.3225C9.64897 40.1488 8.48611 39.8155 7.55906 39.2474L5.99157 41.8054C7.46921 42.7109 9.14541 43.1144 11.1925 43.3091C13.2173 43.5016 15.7559 43.5 19.0003 43.5V40.5ZM0.500301 25C0.500301 28.2444 0.498718 30.783 0.691235 32.8078C0.885875 34.8549 1.28944 36.5311 2.19494 38.0087L4.75286 36.4412C4.18476 35.5142 3.85153 34.3513 3.67777 32.5238C3.50188 30.674 3.5003 28.3025 3.5003 25H0.500301ZM7.55906 39.2474C6.41534 38.5466 5.45373 37.585 4.75286 36.4412L2.19494 38.0087C3.14318 39.5561 4.44418 40.8571 5.99157 41.8054L7.55906 39.2474ZM25.0003 43.5C28.2447 43.5 30.7833 43.5016 32.8081 43.3091C34.8552 43.1144 36.5314 42.7109 38.009 41.8054L36.4415 39.2474C35.5145 39.8155 34.3516 40.1488 32.5241 40.3225C30.6743 40.4984 28.3028 40.5 25.0003 40.5V43.5ZM39.2477 36.4412C38.5469 37.585 37.5853 38.5466 36.4415 39.2474L38.009 41.8054C39.5564 40.8571 40.8574 39.5561 41.8057 38.0087L39.2477 36.4412ZM36.4415 10.7526C37.5853 11.4534 38.5469 12.415 39.2477 13.5588L41.8057 11.9913C40.8574 10.4439 39.5564 9.14288 38.009 8.19464L36.4415 10.7526ZM19.0003 6.5C15.7559 6.5 13.2173 6.49842 11.1925 6.69093C9.14541 6.88557 7.46921 7.28914 5.99157 8.19464L7.55906 10.7526C8.48611 10.1845 9.64897 9.85123 11.4765 9.67747C13.3263 9.50158 15.6978 9.5 19.0003 9.5V6.5ZM3.5003 25C3.5003 21.6975 3.50188 19.326 3.67777 17.4762C3.85153 15.6487 4.18476 14.4858 4.75286 13.5588L2.19494 11.9913C1.28944 13.4689 0.885875 15.1451 0.691235 17.1922C0.498718 19.217 0.500301 21.7556 0.500301 25H3.5003ZM5.99157 8.19464C4.44418 9.14288 3.14318 10.4439 2.19494 11.9913L4.75286 13.5588C5.45373 12.415 6.41534 11.4534 7.55906 10.7526L5.99157 8.19464ZM18.1064 3.5H28.8439V0.5H18.1064V3.5ZM28.8439 3.5C30.5753 3.5 31.7166 3.50346 32.563 3.62209C33.3596 3.73375 33.6695 3.92077 33.8713 4.13125L36.0364 2.05455C35.1899 1.17212 34.1321 0.812701 32.9794 0.651134C31.8765 0.496543 30.4869 0.5 28.8439 0.5V3.5ZM18.1064 0.5C14.786 0.5 12.1702 0.497765 10.0949 0.732176C7.98763 0.970192 6.25968 1.4674 4.78305 2.58587L6.59443 4.97729C7.46989 4.31418 8.59558 3.9206 10.4316 3.71322C12.2995 3.50224 14.7164 3.5 18.1064 3.5V0.5ZM3.5003 18.7913C3.5003 15.2613 3.5022 12.7294 3.70588 10.7694C3.90701 8.83408 4.29129 7.63357 4.93983 6.70297L2.47855 4.98771C1.4182 6.50924 0.948041 8.28376 0.721947 10.4594C0.498405 12.6104 0.500301 15.3254 0.500301 18.7913H3.5003ZM4.78305 2.58587C3.89642 3.25745 3.11919 4.06843 2.47855 4.98771L4.93983 6.70297C5.40299 6.03836 5.96181 5.45647 6.59443 4.97729L4.78305 2.58587ZM37.5003 8.25323C37.4936 6.89991 37.4647 5.72716 37.2953 4.75493C37.1191 3.74456 36.7711 2.82051 36.0364 2.05455L33.8713 4.13124C34.0581 4.3259 34.2265 4.61976 34.3398 5.27012C34.4598 5.95863 34.4935 6.88945 34.5003 8.26806L37.5003 8.25323ZM0.500301 18.7913C0.500301 20.7426 0.45998 22.5284 0.500815 24.0405L3.49972 23.9595C3.46021 22.4964 3.5003 20.8481 3.5003 18.7913H0.500301ZM41.0002 27.6818H29.273V30.6818H41.0002V27.6818ZM22.3185 23.7273C22.3185 27.5682 25.4321 30.6818 29.273 30.6818V27.6818C27.089 27.6818 25.3185 25.9113 25.3185 23.7273H22.3185ZM25.3185 23.7273C25.3185 21.5433 27.089 19.7728 29.273 19.7728V16.7728C25.4321 16.7728 22.3185 19.8864 22.3185 23.7273H25.3185ZM34.7276 22.2273H29.273V25.2273H34.7276V22.2273ZM25.0003 9.5C27.7695 9.5 29.8901 9.50064 31.6073 9.6066C33.3229 9.71246 34.5223 9.91883 35.4677 10.2779L36.5329 7.47334C35.1727 6.95679 33.6241 6.72535 31.7921 6.6123C29.9617 6.49936 27.7351 6.5 25.0003 6.5V9.5ZM35.4677 10.2779C35.8219 10.4124 36.1423 10.5692 36.4415 10.7526L38.009 8.19464C37.5422 7.90853 37.0525 7.67067 36.5329 7.47334L35.4677 10.2779ZM34.5003 8.26065V8.87562H37.5003V8.26065H34.5003ZM29.273 19.7728H41.8891V16.7728H29.273V19.7728ZM43.5003 25C43.5003 22.2511 43.501 20.0154 43.3862 18.1792L40.392 18.3663C40.4996 20.0879 40.5003 22.2161 40.5003 25H43.5003ZM43.3862 18.1792C43.2293 15.6695 42.8497 13.695 41.8057 11.9913L39.2477 13.5588C39.9055 14.6322 40.245 16.0141 40.392 18.3663L43.3862 18.1792ZM40.5003 25C40.5003 26.575 40.5003 27.9444 40.4801 29.1569L43.4797 29.2067C43.5003 27.9642 43.5003 26.5679 43.5003 25H40.5003ZM40.4801 29.1569C40.4151 33.074 40.1272 35.0062 39.2477 36.4412L41.8057 38.0087C43.166 35.7888 43.4157 33.0625 43.4797 29.2067L40.4801 29.1569ZM41.0002 30.6818H41.9799V27.6818H41.0002V30.6818Z" fill="#121212"/>
</svg>
