<svg width="167" height="171" viewBox="0 0 167 171" fill="none" xmlns="http://www.w3.org/2000/svg">
<path fill-rule="evenodd" clip-rule="evenodd" d="M4.15165 45.7059C-0.0106362 47.517 -1.30036 52.7763 1.46556 56.6617C3.75001 59.8691 5.85174 60.3874 16.5818 60.3874H26.1356L27.1259 63.9734C33.0563 85.4453 47.2021 135.028 47.7253 136.177C48.097 136.993 49.2995 138.087 50.3971 138.608C52.2531 139.488 53.9351 139.342 74.4771 136.504C86.6241 134.826 106.525 132.099 118.702 130.443C139.278 127.646 140.965 127.323 142.59 125.873C144.202 124.433 144.992 121.675 152.764 90.3229C157.398 71.6288 161.2 55.3607 161.213 54.172C161.23 52.5231 160.775 51.5988 159.292 50.2742C158.224 49.3193 156.844 48.5379 156.227 48.5379C155.609 48.5379 129.192 52.1925 97.5219 56.6592C65.852 61.1252 39.8791 64.7037 39.8049 64.6108C39.7307 64.5172 38.7696 61.359 37.6689 57.5915C36.5675 53.824 35.3564 50.3677 34.9772 49.9106C33.4629 48.0857 30.5985 47.3548 20.058 46.1025C7.24997 44.5814 6.7654 44.5689 4.15165 45.7059ZM137.397 64.9089C137.388 65.338 137.124 66.8111 136.809 68.1831C136.494 69.5552 134.819 79.0971 133.087 89.3875C131.353 99.6778 129.791 108.718 129.614 109.477C129.393 110.423 128.558 111.063 126.959 111.512C123.1 112.596 66.228 124.624 64.9645 124.624C63.5613 124.624 63.9779 125.577 56.9274 106.226C53.8029 97.6509 50.7357 89.2509 50.1121 87.5595C49.4884 85.8682 49.1149 84.1288 49.2814 83.6941C49.6294 82.7873 49.0113 82.9338 97.4976 72.2712C117.564 67.8582 134.754 64.221 135.697 64.1886C136.692 64.1543 137.405 64.4568 137.397 64.9089ZM113.025 1.43007C107.926 3.17506 103.783 5.59735 100.411 8.8042C97.1989 11.8601 97.767 12.4638 103.427 12.0092C105.619 11.8333 107.413 11.9007 107.413 12.1595C107.413 12.4183 106.262 13.7461 104.857 15.11C96.2578 23.4552 98.5366 38.2502 108.867 41.1427C113.481 42.4349 119.74 41.7221 124.543 39.3578C135.437 33.9943 140.856 18.6617 135.541 8.24228C134.163 5.54247 129.967 1.50303 127.608 0.606206C124.766 -0.473968 117.37 -0.0567325 113.025 1.43007ZM155.269 127.199C145.383 137.574 139.609 142.366 132.316 146.246C123.401 150.989 109.653 154.839 96.1598 156.371C88.2163 157.272 74.7197 156.819 67.5707 155.411C54.5656 152.849 40.8102 146.687 28.5578 137.934C21.518 132.905 20.058 132.255 20.058 134.152C20.058 135.584 25.6896 142.719 30.6677 147.593C46.5572 163.152 65.8407 170.896 88.6603 170.882C117.781 170.865 139.539 160.274 156.101 138.053C160.741 131.829 165.807 122.617 166.106 119.863C166.507 116.156 164.491 117.521 155.269 127.199Z" fill="black"/>
<path d="M38.7865 35.455C42.679 30.9347 47.6563 27.3168 53.9387 24.4413C59.2913 21.9912 68.673 20.5169 72.4368 21.5327C75.5599 22.3763 81.4272 26.9948 83.5285 30.2634C87.6399 36.6601 83.1906 37.008 77.8053 35.7967C70.2693 34.1017 62.3989 33.3126 55.0673 35.7441L54.6493 35.9228C51.6681 37.1975 48.5551 38.1386 45.3671 38.7288C43.8178 39.0157 42.2465 39.2823 40.6793 39.1192C38.682 38.9114 36.4831 38.1303 38.7865 35.455Z" fill="black"/>
</svg>
